<svg xmlns="http://www.w3.org/2000/svg" viewBox="0 0 480 440" font-family="Helvetica,Arial,sans-serif">
<defs>
<linearGradient id="rain" x1="0" y1="1" x2="1" y2="0"><stop offset="0%" stop-color="#7a1fb5"/><stop offset="25%" stop-color="#2f6bef"/><stop offset="50%" stop-color="#23b34a"/><stop offset="70%" stop-color="#f4d011"/><stop offset="100%" stop-color="#e22020"/></linearGradient>
</defs>
<rect width="480" height="440" fill="#ffffff"/>
<rect x="0" y="250" width="480" height="70" fill="#6a2caa" opacity="0.16"/>
<line x1="0" y1="250" x2="480" y2="250" stroke="#6a2caa" stroke-width="2" opacity="0.5"/>
<line x1="118.0" y1="86.0" x2="132.0" y2="86.0" stroke="#f7b500" stroke-width="4" stroke-linecap="round"/>
<line x1="114.5" y1="99.0" x2="126.6" y2="106.0" stroke="#f7b500" stroke-width="4" stroke-linecap="round"/>
<line x1="105.0" y1="108.5" x2="112.0" y2="120.6" stroke="#f7b500" stroke-width="4" stroke-linecap="round"/>
<line x1="92.0" y1="112.0" x2="92.0" y2="126.0" stroke="#f7b500" stroke-width="4" stroke-linecap="round"/>
<line x1="79.0" y1="108.5" x2="72.0" y2="120.6" stroke="#f7b500" stroke-width="4" stroke-linecap="round"/>
<line x1="69.5" y1="99.0" x2="57.4" y2="106.0" stroke="#f7b500" stroke-width="4" stroke-linecap="round"/>
<line x1="66.0" y1="86.0" x2="52.0" y2="86.0" stroke="#f7b500" stroke-width="4" stroke-linecap="round"/>
<line x1="69.5" y1="73.0" x2="57.4" y2="66.0" stroke="#f7b500" stroke-width="4" stroke-linecap="round"/>
<line x1="79.0" y1="63.5" x2="72.0" y2="51.4" stroke="#f7b500" stroke-width="4" stroke-linecap="round"/>
<line x1="92.0" y1="60.0" x2="92.0" y2="46.0" stroke="#f7b500" stroke-width="4" stroke-linecap="round"/>
<line x1="105.0" y1="63.5" x2="112.0" y2="51.4" stroke="#f7b500" stroke-width="4" stroke-linecap="round"/>
<line x1="114.5" y1="73.0" x2="126.6" y2="66.0" stroke="#f7b500" stroke-width="4" stroke-linecap="round"/>
<circle cx="92" cy="86" r="24" fill="#ffd21a" stroke="#f7b500" stroke-width="3"/>
<line x1="122.0" y1="108.0" x2="230.8" y2="231.0" stroke="#f3a52a" stroke-width="15" stroke-linecap="round"/><path d="M 244.0 246.0 L 221.5 239.2 L 240.0 222.8 Z" fill="#f3a52a"/>
<line x1="250.0" y1="248.0" x2="386.4" y2="111.6" stroke="url(#rain)" stroke-width="17" stroke-linecap="round"/><path d="M 402.0 96.0 L 396.1 121.2 L 376.8 101.9 Z" fill="url(#rain)"/>
<text x="300" y="60" font-size="20" fill="#333" text-anchor="middle">visible light</text>
<line x1="242.0" y1="256.0" x2="160.9" y2="381.2" stroke="#7a1fb5" stroke-width="15" stroke-linecap="round"/><path d="M 150.0 398.0 L 150.5 374.5 L 171.3 388.0 Z" fill="#7a1fb5"/>
<line x1="248.0" y1="258.0" x2="249.7" y2="382.0" stroke="#3a0d63" stroke-width="15" stroke-linecap="round"/><path d="M 250.0 402.0 L 237.3 382.2 L 262.1 381.8 Z" fill="#3a0d63"/>
<line x1="254.0" y1="256.0" x2="348.0" y2="382.0" stroke="#e87a18" stroke-width="15" stroke-linecap="round"/><path d="M 360.0 398.0 L 338.1 389.4 L 358.0 374.6 Z" fill="#e87a18"/>
<text x="120" y="372" font-size="20" font-weight="700" fill="#5a18a0" text-anchor="middle">UV-A</text>
<text x="250" y="426" font-size="19" fill="#3a0d63" text-anchor="middle">violet light</text>
<text x="372" y="372" font-size="20" font-weight="700" fill="#cc5a00" text-anchor="middle">IR</text>
</svg>