<svg xmlns="http://www.w3.org/2000/svg" viewBox="0 0 920 560" font-family="Helvetica,Arial,sans-serif">
<defs>
<linearGradient id="spec" x1="0" y1="0" x2="1" y2="0">
<stop offset="0.0%" stop-color="#2a0b3d"/>
<stop offset="16.0%" stop-color="#3b0d63"/>
<stop offset="20.0%" stop-color="#6a1fb5"/>
<stop offset="24.0%" stop-color="#3b34d6"/>
<stop offset="28.0%" stop-color="#2f7bef"/>
<stop offset="31.0%" stop-color="#23b34a"/>
<stop offset="36.0%" stop-color="#7ec61b"/>
<stop offset="39.0%" stop-color="#f4d011"/>
<stop offset="41.0%" stop-color="#f59000"/>
<stop offset="46.0%" stop-color="#e22020"/>
<stop offset="50.0%" stop-color="#9e1414"/>
<stop offset="62.0%" stop-color="#5a0d0d"/>
<stop offset="80.0%" stop-color="#360707"/>
<stop offset="100.0%" stop-color="#1c0303"/>
</linearGradient>
<clipPath id="plot"><rect x="78" y="54" width="814" height="420"/></clipPath>
</defs>
<rect x="0" y="0" width="920" height="560" fill="#ffffff"/>
<rect x="78" y="474" width="814" height="16" fill="url(#spec)"/>
<line x1="78" y1="474.0" x2="892" y2="474.0" stroke="#e6e6e6" stroke-width="1"/>
<text x="68" y="478.0" font-size="14" fill="#555" text-anchor="end">0</text>
<line x1="78" y1="409.4" x2="892" y2="409.4" stroke="#e6e6e6" stroke-width="1"/>
<text x="68" y="413.4" font-size="14" fill="#555" text-anchor="end">10</text>
<line x1="78" y1="344.8" x2="892" y2="344.8" stroke="#e6e6e6" stroke-width="1"/>
<text x="68" y="348.8" font-size="14" fill="#555" text-anchor="end">20</text>
<line x1="78" y1="280.2" x2="892" y2="280.2" stroke="#e6e6e6" stroke-width="1"/>
<text x="68" y="284.2" font-size="14" fill="#555" text-anchor="end">30</text>
<line x1="78" y1="215.5" x2="892" y2="215.5" stroke="#e6e6e6" stroke-width="1"/>
<text x="68" y="219.5" font-size="14" fill="#555" text-anchor="end">40</text>
<line x1="78" y1="150.9" x2="892" y2="150.9" stroke="#e6e6e6" stroke-width="1"/>
<text x="68" y="154.9" font-size="14" fill="#555" text-anchor="end">50</text>
<line x1="78" y1="86.3" x2="892" y2="86.3" stroke="#e6e6e6" stroke-width="1"/>
<text x="68" y="90.3" font-size="14" fill="#555" text-anchor="end">60</text>
<text x="26" y="264.0" font-size="14" fill="#555" text-anchor="middle" transform="rotate(-90 26 264.0)">% transmission</text>
<line x1="78.0" y1="474" x2="78.0" y2="496" stroke="#999" stroke-width="1"/>
<text x="78.0" y="512" font-size="12.5" fill="#555" text-anchor="middle">200</text>
<line x1="159.4" y1="474" x2="159.4" y2="496" stroke="#999" stroke-width="1"/>
<text x="159.4" y="512" font-size="12.5" fill="#555" text-anchor="middle">300</text>
<line x1="240.8" y1="474" x2="240.8" y2="496" stroke="#999" stroke-width="1"/>
<text x="240.8" y="512" font-size="12.5" fill="#555" text-anchor="middle">400</text>
<line x1="322.2" y1="474" x2="322.2" y2="496" stroke="#999" stroke-width="1"/>
<text x="322.2" y="512" font-size="12.5" fill="#555" text-anchor="middle">500</text>
<line x1="403.6" y1="474" x2="403.6" y2="496" stroke="#999" stroke-width="1"/>
<text x="403.6" y="512" font-size="12.5" fill="#555" text-anchor="middle">600</text>
<line x1="485.0" y1="474" x2="485.0" y2="496" stroke="#999" stroke-width="1"/>
<text x="485.0" y="512" font-size="12.5" fill="#555" text-anchor="middle">700</text>
<line x1="566.4" y1="474" x2="566.4" y2="496" stroke="#999" stroke-width="1"/>
<text x="566.4" y="512" font-size="12.5" fill="#555" text-anchor="middle">800</text>
<line x1="647.8" y1="474" x2="647.8" y2="496" stroke="#999" stroke-width="1"/>
<text x="647.8" y="512" font-size="12.5" fill="#555" text-anchor="middle">900</text>
<line x1="729.2" y1="474" x2="729.2" y2="496" stroke="#999" stroke-width="1"/>
<text x="729.2" y="512" font-size="12.5" fill="#555" text-anchor="middle">1000</text>
<line x1="810.6" y1="474" x2="810.6" y2="496" stroke="#999" stroke-width="1"/>
<text x="810.6" y="512" font-size="12.5" fill="#555" text-anchor="middle">1100</text>
<line x1="892.0" y1="474" x2="892.0" y2="496" stroke="#999" stroke-width="1"/>
<text x="892.0" y="512" font-size="12.5" fill="#555" text-anchor="middle">1200</text>
<text x="485.0" y="548" font-size="14" fill="#555" text-anchor="middle">Wavelength (nanometers)</text>
<text x="130.9" y="36" font-size="13.5" fill="#444" text-anchor="middle">UV-B</text>
<text x="204.2" y="36" font-size="13.5" fill="#444" text-anchor="middle">UV-A</text>
<text x="371.0" y="36" font-size="13.5" fill="#444" text-anchor="middle">Visible light</text>
<text x="688.5" y="36" font-size="13.5" fill="#444" text-anchor="middle">Infrared</text>
<line x1="224.5" y1="48" x2="224.5" y2="474" stroke="#cfcfcf" stroke-width="1" stroke-dasharray="3 3"/>
<line x1="485.0" y1="48" x2="485.0" y2="474" stroke="#cfcfcf" stroke-width="1" stroke-dasharray="3 3"/>
<g clip-path="url(#plot)"><path d="M 78.0 461.1 L 81.3 460.8 L 84.5 460.6 L 87.8 460.3 L 91.0 460.0 L 94.3 459.8 L 97.5 459.5 L 100.8 459.3 L 104.0 459.0 L 107.3 458.8 L 110.6 458.5 L 113.8 458.2 L 117.1 458.0 L 120.3 457.7 L 123.6 457.5 L 126.8 457.2 L 130.1 456.9 L 133.4 456.7 L 136.6 456.4 L 139.9 456.2 L 143.1 455.9 L 146.4 455.6 L 149.6 455.4 L 152.9 455.1 L 156.1 454.9 L 159.4 454.6 L 162.7 452.5 L 165.9 450.5 L 169.2 448.4 L 172.4 446.3 L 175.7 444.3 L 178.9 442.2 L 182.2 440.1 L 185.4 438.1 L 188.7 436.0 L 192.0 433.9 L 195.2 431.9 L 198.5 429.8 L 201.7 419.7 L 205.0 401.6 L 208.2 383.5 L 211.5 365.4 L 214.8 347.4 L 218.0 329.3 L 221.3 311.2 L 224.5 293.1 L 227.8 267.2 L 231.0 241.4 L 234.3 215.5 L 237.5 189.7 L 240.8 163.8 L 244.1 170.7 L 247.3 177.6 L 250.6 184.5 L 253.8 196.9 L 257.1 225.9 L 260.3 254.8 L 263.6 283.8 L 266.8 312.7 L 270.1 341.7 L 273.4 370.6 L 276.6 381.8 L 279.9 393.0 L 283.1 404.2 L 286.4 415.4 L 289.6 426.6 L 292.9 437.8 L 296.2 449.0 L 299.4 454.9 L 302.7 455.6 L 305.9 456.2 L 309.2 456.9 L 312.4 457.5 L 315.7 458.2 L 318.9 458.8 L 322.2 459.5 L 325.5 460.1 L 328.7 460.8 L 332.0 461.4 L 335.2 462.0 L 338.5 462.7 L 341.7 463.3 L 345.0 464.0 L 348.2 464.6 L 351.5 465.3 L 354.8 465.9 L 358.0 466.6 L 361.3 467.2 L 364.5 467.5 L 367.8 467.5 L 371.0 467.5 L 374.3 467.5 L 377.6 467.5 L 380.8 467.5 L 384.1 467.5 L 387.3 467.5 L 390.6 467.5 L 393.8 467.5 L 397.1 467.5 L 400.3 467.5 L 403.6 467.5 L 406.9 467.5 L 410.1 467.5 L 413.4 467.5 L 416.6 467.5 L 419.9 467.5 L 423.1 467.5 L 426.4 467.5 L 429.6 467.5 L 432.9 467.5 L 436.2 467.5 L 439.4 467.5 L 442.7 467.5 L 445.9 467.5 L 449.2 467.5 L 452.4 467.5 L 455.7 466.2 L 459.0 465.0 L 462.2 463.7 L 465.5 462.4 L 468.7 461.1 L 472.0 459.8 L 475.2 458.5 L 478.5 457.2 L 481.7 455.9 L 485.0 454.6 L 488.3 446.9 L 491.5 439.1 L 494.8 431.4 L 498.0 423.6 L 501.3 415.8 L 504.5 408.1 L 507.8 400.3 L 511.0 392.3 L 514.3 384.1 L 517.6 375.8 L 520.8 367.5 L 524.1 359.2 L 527.3 351.0 L 530.6 342.7 L 533.8 334.4 L 537.1 326.2 L 540.4 317.9 L 543.6 309.6 L 546.9 301.3 L 550.1 293.1 L 553.4 287.5 L 556.6 282.0 L 559.9 276.5 L 563.1 270.9 L 566.4 265.4 L 569.7 259.8 L 572.9 254.3 L 576.2 248.8 L 579.4 243.2 L 582.7 237.7 L 585.9 232.2 L 589.2 226.6 L 592.4 221.1 L 595.7 215.5 L 599.0 210.0 L 602.2 204.5 L 605.5 198.9 L 608.7 194.3 L 612.0 190.7 L 615.2 187.1 L 618.5 183.5 L 621.8 179.9 L 625.0 176.3 L 628.3 172.6 L 631.5 169.0 L 634.8 165.4 L 638.0 161.8 L 641.3 158.2 L 644.5 154.5 L 647.8 150.9 L 651.1 147.3 L 654.3 143.7 L 657.6 140.1 L 660.8 136.4 L 664.1 132.8 L 667.3 129.2 L 670.6 125.6 L 673.8 122.0 L 677.1 118.4 L 680.4 114.7 L 683.6 111.1 L 686.9 107.5 L 690.1 104.9 L 693.4 103.4 L 696.6 101.8 L 699.9 100.3 L 703.2 98.7 L 706.4 97.2 L 709.7 95.6 L 712.9 94.1 L 716.2 92.5 L 719.4 91.0 L 722.7 89.4 L 725.9 87.9 L 729.2 86.3 L 732.5 87.3 L 735.7 88.4 L 739.0 89.4 L 742.2 90.4 L 745.5 91.5 L 748.7 92.5 L 752.0 93.5 L 755.2 94.6 L 758.5 95.6 L 761.8 96.6 L 765.0 97.7 L 768.3 98.7 L 771.5 102.6 L 774.8 109.3 L 778.0 116.0 L 781.3 122.8 L 784.6 129.5 L 787.8 136.2 L 791.1 142.9 L 794.3 149.6 L 797.6 156.4 L 800.8 163.1 L 804.1 169.8 L 807.3 176.5 L 810.6 183.2 L 813.9 191.0 L 817.1 198.7 L 820.4 206.5 L 823.6 214.2 L 826.9 222.0 L 830.1 229.8 L 833.4 237.5 L 836.6 245.3 L 839.9 253.0 L 843.2 260.8 L 846.4 268.5 L 849.7 276.3 L 852.9 283.3 L 856.2 289.5 L 859.4 295.7 L 862.7 301.9 L 866.0 308.1 L 869.2 314.3 L 872.5 320.5 L 875.7 326.7 L 879.0 332.9 L 882.2 339.1 L 885.5 345.3 L 888.7 351.5 L 892.0 357.7" fill="none" stroke="#3a1c5e" stroke-width="3" stroke-linejoin="round"/></g>
<line x1="78" y1="54" x2="78" y2="474" stroke="#333" stroke-width="1.5"/>
<line x1="78" y1="474" x2="892" y2="474" stroke="#333" stroke-width="1.5"/>
<text x="78" y="26" font-size="18" font-weight="700" fill="#2a0b3d">Light transmission of violet glass</text>
</svg>